<svg width="24" height="24" viewBox="0 4 24 24" fill="none" xmlns="http://www.w3.org/2000/svg">
  <path
    d="M16 8.00049C16 12.4188 12.4183 16.0005 8 16.0005C5.85996 16.0005 4.11211 17.681 4.00488 19.7944L4 20.0005C4.00053 22.2092 5.79119 23.9995 8 23.9995C10.2091 23.9995 12 22.2087 12 19.9995H16C16 24.4178 12.4183 27.9995 8 27.9995C3.71994 27.9995 0.225231 24.6384 0.0107422 20.4116L0 19.9995C0.000527916 15.5817 3.58205 12.0005 8 12.0005C8 7.58221 11.5817 4.00049 16 4.00049V8.00049ZM8 12.0005H0C0 7.58221 3.58172 4.00049 8 4.00049V12.0005ZM20 4.00049C20 6.20963 21.7909 8.00049 24 8.00049V12.0005C19.5817 12.0005 16 8.41877 16 4.00049H20Z"
    fill="currentColor" />
</svg>